<svg version="1.1" id="Layer_1" xmlns="http://www.w3.org/2000/svg" xmlns:xlink="http://www.w3.org/1999/xlink" x="0px" y="0px"
	 width="100%" viewBox="0 0 1024 1024" enable-background="new 0 0 1024 1024" xml:space="preserve">
<path fill="#000000" opacity="1.000000" stroke="none" 
	d="
M737.444458,205.375244 
	C757.743591,190.982895 781.203613,193.995193 797.002930,212.964493 
	C813.315918,232.550522 822.057495,255.530457 826.321594,280.358917 
	C829.328552,297.867859 829.529236,315.368164 825.411133,332.813629 
	C821.109802,351.034668 811.419434,365.814819 797.041992,377.521423 
	C784.759521,387.522186 778.296143,399.567200 780.983398,415.888977 
	C782.221802,423.410706 781.610596,431.149597 782.127625,438.797272 
	C783.596741,460.526489 784.084412,482.320648 785.433411,504.059814 
	C786.978455,528.957825 788.351685,553.860107 789.453430,578.780945 
	C789.643738,583.085388 790.463257,587.365479 790.340881,591.714050 
	C790.076111,601.119934 783.759399,607.934326 774.453857,608.264954 
	C766.796936,608.536926 759.115540,608.550720 751.458740,608.283875 
	C742.204163,607.961304 735.543152,600.992188 735.698486,591.724609 
	C735.977112,575.100708 737.284302,558.527466 738.516602,541.949524 
	C739.452942,529.352844 739.953979,516.723877 740.661621,504.110077 
	C741.955933,481.036743 743.311829,457.966675 744.534973,434.889587 
	C745.045654,425.254883 745.680542,415.599426 745.528198,405.964935 
	C745.386169,396.980255 741.452209,389.232788 735.289490,382.735199 
	C732.773926,380.082886 729.985291,377.676941 727.216431,375.279480 
	C709.551086,359.983521 700.401306,340.491211 698.588745,317.370422 
	C695.752869,281.197754 704.762756,248.185181 725.183228,218.266068 
	C728.482117,213.432678 732.591553,209.274551 737.444458,205.375244 
z"/>
<path fill="#000000" opacity="1.000000" stroke="none" 
	d="
M307.325378,463.056335 
	C308.233704,486.800781 309.530914,510.037018 311.138153,533.260315 
	C312.113800,547.357361 312.636597,561.485901 313.343628,575.601257 
	C313.609711,580.913391 314.572632,586.162354 314.377045,591.526428 
	C314.027710,601.105225 307.691864,607.941040 298.077942,608.270447 
	C290.421600,608.532837 282.742218,608.542480 275.086029,608.283081 
	C265.852020,607.970154 259.616302,601.363159 259.659149,592.178955 
	C259.750763,572.543213 261.249969,552.975342 262.525421,533.393188 
	C262.989868,526.262878 263.129547,519.108582 263.555054,511.963104 
	C264.859772,490.052887 265.499695,468.101318 266.955719,446.202881 
	C267.465302,438.539124 268.308350,430.829376 267.353607,423.292389 
	C265.852325,411.441254 259.343079,402.597076 248.229828,397.688080 
	C235.998199,392.285126 225.023346,385.291351 217.063782,374.269867 
	C208.525970,362.447662 205.190948,349.240265 206.422592,334.734467 
	C207.126144,326.448273 206.939240,318.118347 207.482513,309.800354 
	C208.652985,291.879456 208.770950,273.891998 209.785049,255.958084 
	C210.583313,241.841309 211.365494,227.732300 211.748978,213.596680 
	C211.942078,206.478882 214.557892,202.532700 219.686371,201.124130 
	C224.404007,199.828384 228.605011,200.804626 231.809006,204.768356 
	C233.666855,207.066727 234.472382,209.707520 234.316711,212.668655 
	C233.364883,230.773773 232.422058,248.879395 231.491791,266.985657 
	C231.082108,274.959412 231.192978,282.933868 230.515961,290.924896 
	C229.561981,302.185059 229.605911,313.533386 229.330811,324.846619 
	C228.963196,339.964752 232.906937,344.258270 248.168716,345.598938 
	C255.076645,346.205719 255.644363,345.713043 255.645279,338.849792 
	C255.650940,296.524017 255.632996,254.198242 255.656891,211.872467 
	C255.661057,204.484940 259.758179,200.370224 266.592773,200.673386 
	C271.962799,200.911575 275.646301,204.116455 276.365784,209.466995 
	C276.763824,212.426971 276.956909,215.436600 276.960449,218.424194 
	C277.007599,258.250244 276.994904,298.076294 277.022949,337.902374 
	C277.028381,345.635284 277.079254,345.635254 284.606903,345.641754 
	C297.650055,345.653015 297.650482,345.653015 297.650787,332.417908 
	C297.651794,292.258423 297.637512,252.098907 297.666687,211.939438 
	C297.672058,204.546555 301.834198,200.348267 308.601318,200.676926 
	C313.922211,200.935364 317.596069,204.198181 318.370972,209.548630 
	C318.703949,211.847473 318.882294,214.190750 318.876984,216.513275 
	C318.788513,255.151947 318.655457,293.790527 318.551971,332.429169 
	C318.546631,334.422516 318.790436,336.416229 318.793182,338.409943 
	C318.803345,345.744324 319.659332,346.532074 326.912445,345.516144 
	C329.050415,345.216705 331.189056,344.855255 333.288300,344.357300 
	C342.420349,342.191376 346.643127,335.956757 345.294434,326.620819 
	C344.053345,318.029877 344.499146,309.349213 343.879547,300.713257 
	C342.618042,283.130646 342.557587,265.465240 341.550446,247.859787 
	C340.876099,236.071823 339.836975,224.301498 339.683838,212.489929 
	C339.586823,205.003937 343.504425,200.772842 350.211121,200.679764 
	C357.080048,200.584442 360.992249,205.000336 361.387512,212.556107 
	C362.542480,234.634583 363.978699,256.698364 365.127075,278.777191 
	C366.008270,295.718475 366.520691,312.678925 367.397156,329.620514 
	C367.784546,337.108612 368.421478,344.626831 366.743622,351.969910 
	C362.134430,372.141937 350.002045,386.407074 331.459106,395.204559 
	C322.592560,399.411194 314.229706,403.991058 309.582489,413.235168 
	C307.533813,417.310303 306.209930,421.533112 306.249451,426.145355 
	C306.353607,438.295288 305.946014,450.459320 307.325378,463.056335 
z"/>
<path fill="#000000" opacity="1.000000" stroke="none" 
	d="
M402.629272,573.416992 
	C366.417999,545.148926 342.238098,509.430542 332.384003,464.671906 
	C328.519135,447.117188 326.677979,429.263550 328.623566,411.209137 
	C328.838623,409.213318 329.243439,407.697754 331.164337,406.789215 
	C338.514282,403.312927 345.695862,399.520630 353.522919,394.017822 
	C344.924438,458.144867 364.861298,510.459991 413.790405,550.981445 
	C440.914886,573.444946 472.822662,585.347961 507.887421,586.451965 
	C583.522461,588.833191 646.491821,543.143982 669.565186,474.272614 
	C693.607788,402.508118 666.309204,328.255463 605.503052,287.897522 
	C568.304626,263.208435 527.140747,254.635559 483.050476,263.413574 
	C439.297821,272.124329 404.864746,295.531189 378.575287,332.624664 
	C376.832855,326.256836 378.006836,320.753540 376.940643,315.431549 
	C375.968994,310.581512 376.198608,305.497925 375.774689,300.527893 
	C375.573151,298.165375 376.389374,296.391418 377.999573,294.722351 
	C407.136993,264.519653 442.204468,245.341309 483.712616,238.650116 
	C533.593384,230.609238 579.900513,240.777512 621.378540,269.345947 
	C662.293152,297.526306 688.676697,336.338074 698.275940,385.402649 
	C709.849121,444.556854 695.804321,497.803741 657.425537,543.999451 
	C627.430969,580.103271 588.525146,601.526184 541.926270,608.394775 
	C490.844147,615.924194 444.522217,604.131470 402.629272,573.416992 
z"/>
<path fill="#000000" opacity="1.000000" stroke="none" 
	d="
M492.951691,550.377747 
	C437.747925,537.701355 402.367828,504.500183 389.558868,449.681763 
	C380.720642,411.856628 389.580688,376.873260 413.036407,345.684296 
	C431.649231,320.934967 456.208344,305.328339 486.221100,298.771759 
	C522.665100,290.810150 556.752197,297.689941 587.519958,318.559326 
	C618.337830,339.462799 636.258118,368.855225 641.440613,405.836761 
	C651.000793,474.056519 603.825134,538.727051 536.045349,550.161865 
	C521.884644,552.550842 507.622162,552.947754 492.951691,550.377747 
M563.437683,515.893372 
	C565.461426,514.737793 567.505859,513.616699 569.505981,512.421509 
	C610.258118,488.069550 629.834717,434.612305 614.177734,390.461334 
	C596.902466,341.747101 548.108276,313.201508 496.567078,321.159058 
	C451.513245,328.114990 415.725861,364.987518 410.554047,411.710602 
	C407.403412,440.173553 414.591400,466.167603 433.088257,488.584656 
	C451.142365,510.465179 473.979095,524.204529 502.262207,527.369751 
	C523.335815,529.728149 543.691467,525.841309 563.437683,515.893372 
z"/>
<path fill="#000000" opacity="1.000000" stroke="none" 
	d="
M633.531433,668.553589 
	C632.566345,667.197388 631.795593,666.120117 630.312805,664.047546 
	C630.312805,669.555908 630.313599,674.049194 630.312683,678.542480 
	C630.310669,688.872498 630.196716,699.204407 630.364990,709.531616 
	C630.424805,713.203491 629.128357,714.401245 625.454651,714.471924 
	C610.669922,714.756104 610.668640,714.864197 610.666504,699.920471 
	C610.663391,678.427307 610.790161,656.932800 610.567566,635.441956 
	C610.519226,630.776855 612.163269,629.934814 616.532532,629.459351 
	C625.498291,628.483582 631.141602,631.466064 635.998779,639.310486 
	C644.567505,653.149109 654.389587,666.211670 663.774353,679.725037 
	C665.247742,678.263184 664.601135,676.693787 664.608276,675.333252 
	C664.678162,662.004456 664.797546,648.673096 664.583862,635.347473 
	C664.515991,631.114868 665.612793,629.520203 670.151428,629.547119 
	C684.314575,629.631104 684.317810,629.446289 684.318298,643.664673 
	C684.318970,665.157837 684.201721,686.652100 684.406433,708.143311 
	C684.450195,712.740051 683.309448,714.145569 678.412048,714.643188 
	C668.956726,715.604065 663.156372,712.226990 658.194275,704.130188 
	C650.725342,691.943176 641.947327,680.558411 633.531433,668.553589 
z"/>
<path fill="#000000" opacity="1.000000" stroke="none" 
	d="
M411.957153,712.751648 
	C411.766998,686.137573 411.742920,659.987000 411.641418,633.836731 
	C411.630188,630.941467 412.585541,629.776184 415.650696,629.607788 
	C429.769073,628.831665 429.650299,628.822510 437.736511,640.651794 
	C446.908813,654.069824 456.312195,667.329895 465.697113,680.776123 
	C465.697113,664.813965 465.725342,649.199341 465.670074,633.585144 
	C465.660583,630.913208 466.588043,629.828552 469.407501,629.621643 
	C485.356476,628.451477 485.351410,628.384155 485.350769,644.394531 
	C485.349915,665.550049 485.349243,686.705505 485.348541,707.861023 
	C485.348480,709.832336 485.348541,711.803711 485.348541,714.336853 
	C479.609009,714.336853 474.334717,714.371155 469.061188,714.322266 
	C466.468628,714.298218 465.525940,712.130981 464.297333,710.382690 
	C453.594238,695.152649 442.893127,679.921265 431.435181,663.614014 
	C431.435181,681.096130 431.435181,697.309387 431.435181,714.199280 
	C424.666534,714.013672 418.350739,715.667542 411.957153,712.751648 
z"/>
<path fill="#000000" opacity="1.000000" stroke="none" 
	d="
M501.571106,774.481934 
	C504.631134,778.829590 507.127930,783.156128 510.729767,786.874084 
	C512.222351,784.975830 511.608734,783.087219 511.616913,781.360291 
	C511.677612,768.534058 511.744598,755.706177 511.589264,742.881531 
	C511.544220,739.162048 512.481689,737.313416 516.602234,737.593201 
	C520.899170,737.884949 525.231262,737.658264 529.228149,737.658264 
	C530.867371,739.438721 530.361755,741.187988 530.364014,742.788879 
	C530.398132,767.109375 530.267761,791.430969 530.492004,815.749512 
	C530.536865,820.610779 528.901001,821.657898 524.256470,822.080994 
	C515.652405,822.864868 510.310883,820.003235 505.609894,812.470581 
	C496.987274,798.653931 487.062805,785.649719 477.251221,771.695496 
	C477.251221,786.956909 477.069397,801.492493 477.355499,816.018799 
	C477.448425,820.737122 475.780823,821.985840 471.336060,821.981018 
	C457.648010,821.966187 457.648102,822.109680 457.648590,808.311584 
	C457.649323,786.656311 457.742249,765.000366 457.570435,743.346436 
	C457.536896,739.120850 458.705505,737.934998 463.106873,737.446594 
	C472.487579,736.405518 478.569641,739.395325 483.323730,747.819397 
	C488.538483,757.059692 495.278931,765.438965 501.571106,774.481934 
z"/>
<path fill="#000000" opacity="1.000000" stroke="none" 
	d="
M374.671326,640.457214 
	C383.803375,664.912170 392.774963,689.011536 402.173553,714.257935 
	C395.313263,714.257935 389.446136,714.274292 383.579285,714.245728 
	C382.216095,714.239075 381.548828,713.203613 381.051544,712.129700 
	C380.563812,711.076538 380.183777,709.970947 379.797607,708.873901 
	C375.781342,697.464661 375.783661,697.459961 363.882172,697.436646 
	C358.888458,697.426880 353.887939,697.595886 348.903412,697.382202 
	C345.677551,697.243896 344.305847,698.658386 343.093018,701.517944 
	C341.311676,705.717773 341.677216,711.787170 337.480316,713.750305 
	C333.756439,715.492065 328.672516,714.361816 324.187927,714.423096 
	C322.562225,714.445312 320.876801,714.800415 319.202850,713.931396 
	C318.831421,711.871338 319.886536,710.116089 320.557068,708.312256 
	C329.648895,683.852966 338.868317,659.440430 347.792297,634.920227 
	C349.313904,630.739380 351.477356,628.965515 355.803986,629.616516 
	C357.106293,629.812439 358.462769,629.648804 359.794434,629.649231 
	C370.911926,629.652893 370.911926,629.652832 374.671326,640.457214 
M358.628540,657.515259 
	C356.420166,665.350525 352.542084,672.692505 350.949982,681.304626 
	C357.536560,681.806580 363.350159,681.783508 370.116364,681.346313 
	C366.892914,671.820923 363.963715,663.165161 360.745483,653.655273 
	C359.845306,655.298218 359.395844,656.118591 358.628540,657.515259 
z"/>
<path fill="#000000" opacity="1.000000" stroke="none" 
	d="
M755.311462,651.848389 
	C763.013733,672.570068 770.607422,692.916077 778.459167,713.953674 
	C771.764587,714.753235 765.848938,714.386536 759.950378,714.275757 
	C757.792664,714.235229 757.546753,712.281738 756.860291,710.832153 
	C754.829163,706.542786 755.411743,700.119507 751.059387,698.131714 
	C747.033997,696.293274 741.602783,697.502441 736.789734,697.429138 
	C733.129761,697.373352 729.450562,697.634705 725.812622,697.344604 
	C722.135010,697.051331 720.521301,698.683105 719.369080,701.997559 
	C715.058960,714.395874 714.964172,714.364197 702.065430,714.418762 
	C699.921021,714.427795 697.776550,714.420044 695.204468,714.420044 
	C695.888123,709.252563 698.171936,705.012146 699.780701,700.607422 
	C707.703918,678.913879 715.892456,657.317078 723.757629,635.602905 
	C725.324890,631.275879 727.364014,629.408997 732.288635,629.518616 
	C746.888000,629.843567 746.896057,629.600952 752.044250,643.075562 
	C753.111511,645.869080 754.150757,648.673401 755.311462,651.848389 
M727.538452,680.277649 
	C733.504822,683.254395 739.689026,680.941162 746.747192,681.658875 
	C743.365723,671.686035 740.274109,662.568054 737.182495,653.450012 
	C736.837097,653.413574 736.491699,653.377136 736.146301,653.340698 
	C733.245667,662.069702 730.344971,670.798767 727.538452,680.277649 
z"/>
<path fill="#000000" opacity="1.000000" stroke="none" 
	d="
M639.345215,748.913330 
	C639.916260,753.484741 637.855347,754.515869 634.122864,754.433716 
	C625.964050,754.254028 617.795349,754.521606 609.636536,754.342224 
	C605.903015,754.260254 604.163818,755.272278 604.284973,759.384033 
	C604.679443,772.776428 602.479126,770.606201 615.613708,770.800842 
	C621.443237,770.887268 627.275391,770.891113 633.105164,770.824341 
	C636.029480,770.790894 637.342163,771.986084 637.304382,774.984863 
	C637.111755,790.273254 639.246704,787.683533 625.456055,787.955200 
	C619.794312,788.066772 614.127991,788.021667 608.464722,787.959534 
	C605.538208,787.927429 604.276855,789.140991 604.325867,792.155579 
	C604.574463,807.463257 602.447021,804.349976 616.005249,804.635803 
	C622.832458,804.779846 629.667786,804.777771 636.494324,804.619385 
	C639.993896,804.538208 641.171509,805.965149 641.106812,809.366455 
	C640.834595,823.678284 642.689453,821.748352 629.101013,821.889099 
	C617.274231,822.011536 605.445312,821.927551 593.617310,821.911011 
	C590.805664,821.907104 587.977295,821.945862 585.325195,821.006897 
	C584.364136,819.553101 584.678650,818.010559 584.677368,816.545349 
	C584.657043,792.222961 584.755066,767.900024 584.584656,743.578796 
	C584.553528,739.136658 585.719666,737.451233 590.438843,737.547913 
	C604.260132,737.830933 618.090942,737.643127 631.918030,737.650513 
	C639.329773,737.654480 639.330139,737.664307 639.346985,744.927795 
	C639.349731,746.093933 639.347046,747.260132 639.345215,748.913330 
z"/>
<path fill="#000000" opacity="1.000000" stroke="none" 
	d="
M406.203857,766.654541 
	C406.021851,770.415710 408.094696,770.842590 410.735046,770.822510 
	C418.393555,770.764099 426.054840,770.906433 433.710938,770.758850 
	C437.122223,770.693115 438.467743,771.915527 438.378967,775.405212 
	C438.012878,789.793457 440.619110,787.765747 426.109802,787.953125 
	C419.954437,788.032654 413.797546,787.990295 407.641571,788.033203 
	C407.356903,788.035217 407.074280,788.330933 406.787903,788.491638 
	C406.641937,788.784424 406.401520,789.065125 406.369507,789.367798 
	C404.753754,804.656128 404.755707,804.655212 420.068787,804.660889 
	C426.062775,804.663086 432.059570,804.782898 438.049652,804.632751 
	C441.321259,804.550781 442.457947,805.893372 442.359344,809.066223 
	C441.894196,824.032593 445.176819,821.507263 429.973969,821.857544 
	C418.491699,822.122070 406.998138,821.915649 395.509735,821.880066 
	C392.710693,821.871399 389.880219,821.956726 387.253784,820.948242 
	C386.360138,819.448181 386.675354,817.913391 386.673828,816.448120 
	C386.648926,792.139038 386.753296,767.829163 386.560120,743.521606 
	C386.524200,739.000854 387.800659,737.461060 392.440643,737.546082 
	C406.921356,737.811584 421.411316,737.760925 435.894592,737.581848 
	C439.958618,737.531677 441.499664,738.801819 441.393951,742.979004 
	C441.048798,756.617310 442.942078,754.092957 430.045959,754.362244 
	C423.887970,754.490784 417.715485,754.610962 411.568298,754.327942 
	C407.434906,754.137634 405.725739,755.553894 406.150635,759.713928 
	C406.369415,761.856262 406.192322,764.039062 406.203857,766.654541 
z"/>
<path fill="#000000" opacity="1.000000" stroke="none" 
	d="
M311.644226,785.999878 
	C311.645844,771.352356 311.768982,757.203186 311.572662,743.058411 
	C311.516235,738.995117 312.717102,737.356201 316.922363,737.599731 
	C327.692596,738.223572 338.550568,736.514221 349.267487,738.612000 
	C366.049347,741.896973 374.399384,751.420532 374.345642,767.023071 
	C374.297516,780.981873 364.094757,792.318848 348.786743,795.127502 
	C344.722168,795.873291 340.602478,796.755249 336.410309,796.318542 
	C332.594971,795.921204 330.954559,797.301819 331.171387,801.359741 
	C331.455109,806.670227 331.115875,812.011047 331.260345,817.333008 
	C331.344818,820.445618 330.282288,821.744141 327.013580,821.939514 
	C311.648499,822.857849 311.652802,822.936768 311.647766,807.471558 
	C311.645477,800.481018 311.645355,793.490479 311.644226,785.999878 
M331.773010,755.451111 
	C330.637085,759.376587 330.846100,763.478027 331.388611,767.336548 
	C331.922150,771.131287 328.061707,776.758179 334.091858,778.471924 
	C338.058441,779.599243 342.689972,779.298340 346.900909,777.822510 
	C352.458038,775.874878 354.827332,772.443359 354.715973,766.499084 
	C354.614319,761.072754 351.995605,757.287903 346.650604,755.831726 
	C342.014679,754.568665 337.241791,753.610901 331.773010,755.451111 
z"/>
<path fill="#000000" opacity="1.000000" stroke="none" 
	d="
M264.632812,632.393921 
	C280.242615,625.942505 294.789368,626.935913 308.541748,636.450989 
	C312.085632,638.902954 313.302277,641.223206 309.486359,644.669678 
	C306.803925,647.092346 304.668427,650.120605 302.128601,653.064026 
	C297.183044,650.784241 293.311829,646.955200 287.773438,646.196777 
	C274.027954,644.314514 261.968994,653.144409 260.445251,666.924683 
	C259.311829,677.175171 261.169800,686.606323 269.777954,693.452148 
	C277.749664,699.791931 288.845825,699.687012 297.513092,692.922424 
	C300.459167,690.623047 302.311981,690.698242 304.541107,693.448486 
	C305.900055,695.125122 307.518219,696.590698 309.008423,698.161987 
	C314.089630,703.519653 314.124207,704.237061 308.081787,708.245789 
	C293.568420,717.874390 278.244110,719.342529 262.749420,711.180725 
	C247.659378,703.232056 240.879211,689.954834 240.662018,673.128540 
	C240.426605,654.889709 247.519135,640.905518 264.632812,632.393921 
z"/>
<path fill="#000000" opacity="1.000000" stroke="none" 
	d="
M520.653198,701.986389 
	C520.654175,685.169128 520.537598,668.847473 520.738342,652.529663 
	C520.789551,648.363953 519.399231,646.869385 515.299438,647.065674 
	C510.315063,647.304321 505.308472,647.034302 500.315002,647.143616 
	C497.173401,647.212463 495.753876,645.981506 495.808228,642.743774 
	C496.074951,626.859436 493.865387,629.851624 507.984955,629.693176 
	C524.636169,629.506348 541.292175,629.754028 557.943542,629.579468 
	C561.995239,629.537109 563.448730,630.729736 563.437195,634.934814 
	C563.404114,647.028320 563.571777,646.956848 551.259033,647.136353 
	C538.628967,647.320312 540.142517,645.363098 540.088989,658.280090 
	C540.019348,675.099548 539.969055,691.920715 540.151978,708.738525 
	C540.198792,713.039490 538.856506,715.033203 534.435730,714.427429 
	C533.781982,714.337830 533.105164,714.416382 532.439026,714.417358 
	C520.653381,714.434753 520.653381,714.434753 520.653198,701.986389 
z"/>
<path fill="#000000" opacity="1.000000" stroke="none" 
	d="
M655.648315,746.050171 
	C655.677185,737.664795 655.677185,737.664856 663.430908,737.650818 
	C675.349243,737.629272 675.349365,737.629272 675.349243,749.474731 
	C675.349060,765.473572 675.570068,781.477295 675.222290,797.468567 
	C675.108215,802.713684 676.834717,804.055908 681.775574,803.795044 
	C689.087891,803.408936 696.438782,803.819885 703.767395,803.645752 
	C707.257935,803.562866 708.462524,804.893860 708.373901,808.326599 
	C707.957458,824.462646 710.882996,821.640686 695.141418,821.883301 
	C684.144958,822.052917 673.140076,821.742004 662.145935,821.975220 
	C657.353210,822.076843 655.455139,820.825806 655.523071,815.535828 
	C655.818420,792.541260 655.648804,769.540649 655.648315,746.050171 
z"/>
<path fill="#000000" opacity="1.000000" stroke="none" 
	d="
M593.915527,652.000061 
	C593.919800,670.990295 593.929504,689.480652 593.926514,707.970947 
	C593.925476,714.416321 593.911194,714.415588 587.268555,714.412964 
	C583.293945,714.411438 579.319275,714.412659 575.873169,714.412659 
	C574.235657,712.817444 574.578796,711.419250 574.575500,710.124023 
	C574.511108,684.638916 574.505798,659.153625 574.359985,633.669067 
	C574.342224,630.565247 575.485168,629.549377 578.444702,629.631042 
	C596.772034,630.136658 593.576172,626.368286 593.909912,644.503845 
	C593.952759,646.835205 593.916016,649.167969 593.915527,652.000061 
z"/>
<path fill="#000000" opacity="1.000000" stroke="none" 
	d="
M547.717285,774.000000 
	C547.710938,763.168579 547.819153,752.835205 547.637878,742.506897 
	C547.573303,738.826172 548.870056,737.645996 552.540466,737.577087 
	C567.351685,737.299133 567.350403,737.190918 567.350159,752.037842 
	C567.349854,773.367249 567.207703,794.698242 567.455200,816.024719 
	C567.510681,820.810852 565.760193,822.025757 561.384277,821.953735 
	C544.349304,821.673279 548.052368,822.913147 547.761719,808.492798 
	C547.533325,797.166138 547.716980,785.831238 547.717285,774.000000 
z"/>
<path fill="#000000" opacity="1.000000" stroke="none" 
	d="
M571.412415,431.392273 
	C570.523254,436.480194 569.692017,441.160858 568.860779,445.841492 
	C565.347107,426.559723 559.994507,408.844604 537.041687,402.866638 
	C560.379883,396.751648 565.050598,378.317841 568.301453,358.713654 
	C570.524780,367.834442 571.886780,376.805420 575.754333,385.108459 
	C579.915771,394.042511 587.738342,398.496277 596.985962,402.561188 
	C582.448120,407.076630 574.811462,417.183197 571.412415,431.392273 
z"/>
</svg>