<svg version="1.1" id="Layer_1" xmlns="http://www.w3.org/2000/svg" xmlns:xlink="http://www.w3.org/1999/xlink" x="0px" y="0px"
	 width="100%" viewBox="0 0 1024 1024" enable-background="new 0 0 1024 1024" xml:space="preserve">
<path fill="#000000" opacity="1.000000" stroke="none" 
	d="
M894.030029,361.830017 
	C886.482849,378.253357 873.924927,389.629242 860.396301,400.513519 
	C844.693115,413.147400 837.794922,430.036774 840.053101,450.385132 
	C840.804688,457.157867 840.626221,463.993683 841.125671,470.805939 
	C842.559143,490.357635 843.095032,509.974030 844.442200,529.533447 
	C845.949585,551.418945 847.093384,573.323547 848.484375,595.212463 
	C849.822693,616.271484 851.094727,637.335083 852.467102,658.391052 
	C853.861145,679.781006 855.125732,701.177185 856.476624,722.568054 
	C858.079834,747.955444 859.325073,773.351990 860.547180,798.756592 
	C860.910339,806.304565 860.829773,813.662537 859.446045,821.036926 
	C855.582581,841.627075 837.520935,855.889404 817.343018,854.313599 
	C797.804443,852.787781 782.394165,835.469421 781.596802,814.625671 
	C780.621826,789.138794 782.837708,763.756714 783.851868,738.341614 
	C784.659729,718.095459 786.380066,697.885620 787.699341,677.659912 
	C789.386658,651.791077 790.958435,625.914001 792.812439,600.057129 
	C793.929382,584.479126 794.729126,568.882385 795.803040,553.307068 
	C797.689087,525.951965 799.456726,498.595306 800.829956,471.208923 
	C801.370728,460.425415 802.773254,449.681274 802.636230,438.861389 
	C802.427307,422.364960 795.963257,408.826660 782.854004,398.742523 
	C768.587708,387.768311 755.726440,375.730652 748.082031,358.915070 
	C742.126160,345.813873 739.268616,331.959167 738.838379,317.855103 
	C737.631897,278.304718 744.869385,240.382446 763.842163,205.297195 
	C772.222168,189.800613 782.427734,175.491196 798.358032,166.718552 
	C817.987488,155.908813 841.027405,159.149429 857.546082,174.383652 
	C875.508667,190.949554 885.714722,212.088425 893.215576,234.771362 
	C900.613770,257.144012 904.537781,280.219757 904.951965,303.739655 
	C905.302063,323.623230 903.355286,343.284760 894.030029,361.830017 
z"/>
<path fill="#000000" opacity="1.000000" stroke="none" 
	d="
M219.348114,308.999939 
	C219.351395,315.498779 219.437607,321.499237 219.325912,327.496002 
	C219.260040,331.032440 220.624069,332.780487 224.310257,332.668915 
	C228.305832,332.547913 232.310532,332.552002 236.306305,332.669800 
	C239.578964,332.766235 240.817627,331.215240 240.675232,328.107513 
	C240.583847,326.112274 240.670929,324.109100 240.671036,322.109467 
	C240.673325,274.451447 240.704636,226.793396 240.629990,179.135498 
	C240.622498,174.352097 241.657806,170.164429 245.481659,167.138275 
	C249.183624,164.208588 253.272110,162.754944 258.011230,164.832809 
	C263.131989,167.078033 265.427765,171.284561 266.256195,176.483780 
	C266.515472,178.111191 266.342560,179.809830 266.342621,181.475861 
	C266.344727,229.467148 266.342834,277.458435 266.343842,325.449738 
	C266.343994,332.690552 266.349060,332.690521 273.792572,332.686432 
	C288.842010,332.678101 296.258240,323.848511 294.090424,308.646454 
	C293.054932,301.384827 293.479034,294.033600 292.963287,286.721375 
	C291.734833,269.304382 291.857483,251.788727 290.510803,234.384384 
	C289.236145,217.910614 290.374115,201.414795 289.110016,184.961014 
	C288.807678,181.026123 289.243286,176.949661 289.936493,173.044281 
	C290.839783,167.955765 297.072174,163.527481 302.201721,163.785828 
	C308.007324,164.078201 313.874969,169.743301 314.268188,175.900360 
	C315.062958,188.344559 315.699951,200.800156 316.269775,213.257095 
	C317.356476,237.012024 317.940674,260.798737 319.536469,284.518280 
	C320.496246,298.783844 321.187042,313.063660 322.033112,327.331390 
	C323.803680,357.189880 310.460541,379.155426 285.565887,394.717438 
	C281.470734,397.277435 277.313416,399.738708 273.168976,402.219086 
	C257.303650,411.714111 249.887085,426.369049 249.531860,444.192261 
	C249.161179,462.790680 250.968521,481.382477 252.139328,499.963104 
	C252.996597,513.568176 253.595779,527.189331 254.332321,540.802185 
	C255.607422,564.369019 256.927826,587.933533 258.174774,611.501892 
	C258.947815,626.112976 259.530487,640.734558 260.359650,655.342224 
	C261.536743,676.079102 262.830566,696.809570 264.143188,717.538391 
	C264.542389,723.843079 264.833496,730.177795 265.048981,736.463379 
	C265.943695,762.558228 268.740479,788.566223 268.383423,814.718262 
	C268.103241,835.243713 252.218842,852.750305 231.351044,854.182373 
	C209.054169,855.712463 192.377853,836.119019 190.500504,821.543152 
	C189.321014,812.385559 189.398758,803.309753 190.301010,794.194031 
	C191.071350,786.411133 190.858566,778.594055 191.472046,770.786316 
	C192.708679,755.047119 192.799850,739.221924 193.747604,723.455261 
	C195.193024,699.409424 197.071091,675.389832 198.563324,651.346497 
	C199.757660,632.102661 200.543823,612.833618 201.708572,593.587708 
	C202.862991,574.512695 204.409454,555.460815 205.501038,536.382629 
	C206.118164,525.597046 206.748596,514.817139 207.490021,504.038086 
	C208.778854,485.300934 210.253983,466.541626 210.497971,447.776611 
	C210.782990,425.856689 200.180786,409.742218 181.095505,399.245239 
	C169.013901,392.600342 157.850708,384.903748 149.649582,373.564423 
	C141.797348,362.707581 137.970291,350.385803 137.728638,337.146973 
	C137.245361,310.670807 139.707886,284.313354 141.510468,257.928497 
	C142.542084,242.828369 143.188492,227.691940 143.572906,212.560791 
	C143.877274,200.580307 145.010818,188.638229 144.775284,176.626099 
	C144.639877,169.720413 150.072296,164.234772 156.374435,163.760391 
	C162.318527,163.312943 168.104126,168.034225 169.352951,174.595901 
	C171.239059,184.506088 170.809830,194.589584 169.985779,204.479156 
	C168.974777,216.612091 169.207855,228.761520 168.671310,240.881729 
	C167.567886,265.808228 165.282593,290.686859 165.249374,315.666931 
	C165.241806,321.363220 167.627106,325.486176 171.564194,329.169647 
	C177.531555,334.752563 184.776077,332.257080 191.577499,332.411285 
	C193.114700,332.446167 193.580963,330.869843 193.606598,329.426331 
	C193.633224,327.927063 193.647537,326.427338 193.647614,324.927826 
	C193.650406,276.769897 193.668594,228.611954 193.613815,180.454086 
	C193.609924,177.039856 194.078751,173.855881 195.696350,170.833496 
	C198.331238,165.910400 203.598709,163.117188 208.454376,164.144394 
	C214.816833,165.490387 218.741287,169.572144 219.284775,175.533585 
	C219.435532,177.187286 219.346771,178.863983 219.346848,180.530121 
	C219.348907,223.186752 219.348145,265.843384 219.348114,308.999939 
z"/>
<path fill="#000000" opacity="1.000000" stroke="none" 
	d="
M552.876099,294.755768 
	C575.255859,299.249542 596.544800,305.690979 616.165894,316.707214 
	C672.919556,348.571533 709.588379,395.754791 724.301331,459.472076 
	C728.817505,479.030243 730.438538,498.966797 729.189270,518.927795 
	C724.984680,586.109375 697.067383,641.031311 643.223938,682.140198 
	C612.323364,705.732422 577.191284,719.737183 538.844421,724.014832 
	C475.325592,731.100525 418.903076,712.834229 370.541748,671.304260 
	C331.817352,638.049988 309.257965,595.190735 300.568268,545.089417 
	C283.984283,449.472931 332.204315,354.958221 415.464752,313.289246 
	C437.948517,302.036896 461.892273,295.370422 486.923553,292.588348 
	C508.882660,290.147675 530.701416,291.024048 552.876099,294.755768 
M409.963226,665.501404 
	C454.000732,693.826965 501.863953,703.939941 552.991882,692.399536 
	C613.353638,678.775024 657.430115,643.440430 684.200989,587.395447 
	C702.073669,549.978760 705.902649,510.629333 697.803223,470.182007 
	C686.304688,412.759735 654.153931,370.182037 603.012390,342.255341 
	C563.010315,320.411560 520.232178,314.455536 475.503845,323.339600 
	C431.906464,331.999023 395.541779,353.308228 367.610046,387.805542 
	C330.292419,433.894989 318.023376,487.062744 328.773712,544.812134 
	C338.296051,595.964905 366.003571,636.052734 409.963226,665.501404 
z"/>
<path fill="#000000" opacity="1.000000" stroke="none" 
	d="
M480.399170,780.525696 
	C491.290741,781.272766 501.747131,782.684814 512.180481,782.530884 
	C578.193298,781.556946 637.135071,760.713135 688.241455,718.621643 
	C716.333191,695.485229 738.999756,667.835388 756.057983,635.636230 
	C759.191589,629.721252 763.802612,627.493286 769.597229,628.904663 
	C775.154480,630.258118 778.944580,635.282043 779.394653,641.314209 
	C779.784546,646.540527 778.066833,651.115601 775.860840,655.655090 
	C766.388794,675.146423 753.574280,692.335083 739.315308,708.497742 
	C712.209229,739.222473 680.501282,763.963928 643.332214,781.427124 
	C613.639099,795.377991 582.530029,804.435974 549.905579,808.489807 
	C530.829834,810.860107 511.694305,811.497925 492.637268,810.169556 
	C444.578827,806.819641 399.649841,792.943115 358.534088,767.557007 
	C327.805756,748.584412 300.865601,725.278320 278.561523,696.723328 
	C273.956055,690.827148 273.752167,684.345581 275.297546,677.801819 
	C277.274750,669.429688 287.634003,666.664185 294.004913,672.568054 
	C296.427185,674.812683 298.350006,677.600586 300.471741,680.164612 
	C344.202148,733.010437 399.794830,765.750183 467.175964,778.484253 
	C471.408783,779.284119 475.693024,779.812073 480.399170,780.525696 
z"/>
<path fill="#000000" opacity="1.000000" stroke="none" 
	d="
M350.260651,286.014526 
	C345.077087,286.777527 340.543121,286.404480 336.812225,282.853516 
	C329.450928,275.847260 330.004517,266.224335 338.383911,260.158844 
	C366.499817,239.807037 397.772400,226.097641 431.063843,216.855408 
	C451.257812,211.249268 471.855713,207.966095 492.810913,206.546417 
	C546.920715,202.880600 598.291931,213.164780 647.210571,236.201096 
	C671.484192,247.631836 693.156006,263.046082 713.529053,280.383118 
	C718.260315,284.409332 720.623047,289.105072 720.468201,295.584534 
	C720.254150,304.538452 719.584534,313.555817 721.219727,322.492859 
	C721.500977,324.029999 721.764709,325.779480 720.312927,327.843140 
	C717.575012,324.605682 715.149475,321.329315 712.318420,318.451904 
	C675.403503,280.932922 631.842773,254.943573 580.505920,242.312607 
	C553.330017,235.626236 525.737000,232.839493 497.908600,234.534576 
	C446.243958,237.681595 398.363770,252.580872 355.836212,282.900604 
	C354.222595,284.050995 352.388916,284.892731 350.260651,286.014526 
z"/>
</svg>